<svg width="281" height="223" viewBox="0 0 281 223" fill="none" xmlns="http://www.w3.org/2000/svg">
<path d="M131.201 194.42C131.201 196.396 230.018 197.47 276.075 194.42C278.784 179.85 279.8 140.554 279.8 97.513C279.8 54.4722 278.853 43.6381 278.853 43.6381C275.128 -97.6565 131.201 147.322 131.201 194.42Z" fill="#3A4380"/>
<path d="M131.201 194.42C131.201 196.396 230.018 197.47 276.075 194.42C278.784 179.85 279.8 140.554 279.8 97.513C279.8 54.4722 278.853 43.6381 278.853 43.6381C275.128 -97.6565 131.201 147.322 131.201 194.42Z" fill="#3A4380"/>
<path d="M131.201 194.42C131.201 196.396 230.018 197.47 276.075 194.42C278.784 179.85 279.8 140.554 279.8 97.513C279.8 54.4722 278.853 43.6381 278.853 43.6381C275.128 -97.6565 131.201 147.322 131.201 194.42Z" stroke="#EEF0FF" stroke-width="0.5"/>
<path d="M131.201 194.42C131.201 196.396 230.018 197.47 276.075 194.42C278.784 179.85 279.8 140.554 279.8 97.513C279.8 54.4722 278.853 43.6381 278.853 43.6381C275.128 -97.6565 131.201 147.322 131.201 194.42Z" stroke="#EEF0FF" stroke-width="0.5"/>
<path d="M31.3728 195.955C50.2311 195.955 127.232 195.955 156.977 195.955C186.722 195.955 159.611 100.05 159.611 100.05C133.698 -85.1423 0.956053 195.955 31.3728 195.955Z" fill="#F26BF9"/>
<path d="M31.3728 195.955C50.2311 195.955 127.232 195.955 156.977 195.955C186.722 195.955 159.611 100.05 159.611 100.05C133.698 -85.1423 0.956053 195.955 31.3728 195.955Z" fill="#F26BF9"/>
<path d="M31.3728 195.955C50.2311 195.955 127.232 195.955 156.977 195.955C186.722 195.955 159.611 100.05 159.611 100.05C133.698 -85.1423 0.956053 195.955 31.3728 195.955Z" stroke="#EEF0FF" stroke-width="0.5"/>
<path d="M31.3728 195.955C50.2311 195.955 127.232 195.955 156.977 195.955C186.722 195.955 159.611 100.05 159.611 100.05C133.698 -85.1423 0.956053 195.955 31.3728 195.955Z" stroke="#EEF0FF" stroke-width="0.5"/>
<path d="M214.653 60.2408C211.384 71.6177 208.949 95.7695 217.376 98.191C225.803 100.613 239.613 79.7293 242.882 68.3523C246.151 56.9754 233.476 73.9092 225.049 71.4876C216.622 69.0661 217.922 48.8638 214.653 60.2408Z" fill="#FBE4FC"/>
<path d="M218.29 73.4512C216.582 79.3962 215.272 92.0057 219.599 93.2492C223.927 94.4927 231.078 83.5616 232.786 77.6166C234.494 71.6717 227.937 80.539 223.609 79.2955C219.281 78.052 219.998 67.5063 218.29 73.4512Z" fill="#F26BF9"/>
<path d="M112.329 103.974C114.238 115.656 122.364 138.53 131.018 137.115C139.671 135.701 143.225 110.918 141.316 99.2359C139.406 87.5536 135.189 108.281 126.536 109.695C117.882 111.11 110.419 92.2916 112.329 103.974Z" fill="#FBE4FC"/>
<path d="M121.266 114.36C122.263 120.465 126.471 132.424 130.915 131.697C135.358 130.971 137.149 118.032 136.151 111.927C135.153 105.823 133.016 116.643 128.573 117.369C124.129 118.095 120.268 108.256 121.266 114.36Z" fill="#3A4380"/>
</svg>
