<svg width="281" height="223" viewBox="0 0 281 223" fill="none" xmlns="http://www.w3.org/2000/svg">
<path d="M148.849 194.42C148.849 196.396 50.0319 197.47 3.97533 194.42C1.26613 179.85 0.249991 140.554 0.250007 97.513C0.250007 54.4722 1.19704 43.6381 1.19704 43.6381C4.92225 -97.6565 148.849 147.322 148.849 194.42Z" fill="#3A4380"/>
<path d="M148.849 194.42C148.849 196.396 50.0319 197.47 3.97533 194.42C1.26613 179.85 0.249991 140.554 0.250007 97.513C0.250007 54.4722 1.19704 43.6381 1.19704 43.6381C4.92225 -97.6565 148.849 147.322 148.849 194.42Z" fill="#3A4380"/>
<path d="M148.849 194.42C148.849 196.396 50.0319 197.47 3.97533 194.42C1.26613 179.85 0.249991 140.554 0.250007 97.513C0.250007 54.4722 1.19704 43.6381 1.19704 43.6381C4.92225 -97.6565 148.849 147.322 148.849 194.42Z" stroke="#EEF0FF" stroke-width="0.5"/>
<path d="M148.849 194.42C148.849 196.396 50.0319 197.47 3.97533 194.42C1.26613 179.85 0.249991 140.554 0.250007 97.513C0.250007 54.4722 1.19704 43.6381 1.19704 43.6381C4.92225 -97.6565 148.849 147.322 148.849 194.42Z" stroke="#EEF0FF" stroke-width="0.5"/>
<path d="M248.678 195.955C229.819 195.955 152.818 195.955 123.073 195.955C93.3286 195.955 120.439 100.05 120.439 100.05C146.353 -85.1421 279.095 195.955 248.678 195.955Z" fill="#F26BF9"/>
<path d="M248.678 195.955C229.819 195.955 152.818 195.955 123.073 195.955C93.3286 195.955 120.439 100.05 120.439 100.05C146.353 -85.1421 279.095 195.955 248.678 195.955Z" fill="#F26BF9"/>
<path d="M248.678 195.955C229.819 195.955 152.818 195.955 123.073 195.955C93.3286 195.955 120.439 100.05 120.439 100.05C146.353 -85.1421 279.095 195.955 248.678 195.955Z" stroke="#EEF0FF" stroke-width="0.5"/>
<path d="M248.678 195.955C229.819 195.955 152.818 195.955 123.073 195.955C93.3286 195.955 120.439 100.05 120.439 100.05C146.353 -85.1421 279.095 195.955 248.678 195.955Z" stroke="#EEF0FF" stroke-width="0.5"/>
<path d="M65.3974 60.241C68.6665 71.6179 71.1014 95.7697 62.6741 98.1913C54.2467 100.613 40.4372 79.7295 37.1681 68.3526C33.899 56.9756 46.5736 73.9094 55.001 71.4879C63.4283 69.0663 62.1283 48.864 65.3974 60.241Z" fill="#FBE4FC"/>
<path d="M61.7601 73.4517C63.4683 79.3966 64.7782 92.0062 60.4507 93.2497C56.1231 94.4932 48.9722 83.562 47.2639 77.6171C45.5557 71.6722 52.1136 80.5395 56.4411 79.296C60.7687 78.0525 60.0518 67.5068 61.7601 73.4517Z" fill="#F26BF9"/>
<path d="M167.722 103.974C165.812 115.656 157.686 138.53 149.033 137.116C140.379 135.701 136.825 110.918 138.735 99.2361C140.644 87.5538 144.861 108.281 153.515 109.696C162.168 111.11 169.631 92.2918 167.722 103.974Z" fill="#FBE4FC"/>
<path d="M158.785 114.361C157.787 120.465 153.58 132.424 149.136 131.697C144.692 130.971 142.902 118.032 143.9 111.928C144.898 105.823 147.034 116.643 151.478 117.369C155.922 118.096 159.783 108.256 158.785 114.361Z" fill="#3A4380"/>
</svg>
