<svg width="24" height="24" viewBox="0 0 24 24" fill="none" xmlns="http://www.w3.org/2000/svg">
<g clip-path="url(#clip0_193_1017)">
<path d="M11.8585 21.7409C17.3162 21.7409 21.7406 17.3165 21.7406 11.8587C21.7406 6.40095 17.3162 1.97656 11.8585 1.97656C6.40071 1.97656 1.97632 6.40095 1.97632 11.8587C1.97632 17.3165 6.40071 21.7409 11.8585 21.7409Z" fill="white"/>
<path d="M14.8231 8.89406L8.89382 14.8234M8.89382 8.89406L14.8231 14.8234M21.7406 11.8587C21.7406 17.3165 17.3162 21.7409 11.8585 21.7409C6.40071 21.7409 1.97632 17.3165 1.97632 11.8587C1.97632 6.40095 6.40071 1.97656 11.8585 1.97656C17.3162 1.97656 21.7406 6.40095 21.7406 11.8587Z" stroke="#3A4380" stroke-width="3.5" stroke-linecap="round" stroke-linejoin="round"/>
</g>
<defs>
<clipPath id="clip0_193_1017">
<rect width="23.7171" height="23.7171" fill="white"/>
</clipPath>
</defs>
</svg>
