<svg width="41" height="41" viewBox="0 0 41 41" fill="none" xmlns="http://www.w3.org/2000/svg">
<mask id="mask0_193_978" style="mask-type:alpha" maskUnits="userSpaceOnUse" x="0" y="0" width="41" height="41">
<circle cx="20.5" cy="20.5" r="20.5" fill="#EEF0FF"/>
</mask>
<g mask="url(#mask0_193_978)">
<ellipse cx="20.5" cy="21" rx="23.5" ry="22" fill="#EEF0FF"/>
<path d="M28.1021 40.1178C28.1327 40.4627 10.999 42.1736 2.95827 42.3514C2.26218 39.8502 1.47656 33.0073 0.809253 25.4952C0.141941 17.9832 0.138332 16.0776 0.138332 16.0776C-1.40579 -8.64053 27.3719 31.8976 28.1021 40.1178Z" fill="#3A4380"/>
<path d="M28.1021 40.1178C28.1327 40.4627 10.999 42.1736 2.95827 42.3514C2.26218 39.8502 1.47656 33.0073 0.809253 25.4952C0.141941 17.9832 0.138332 16.0776 0.138332 16.0776C-1.40579 -8.64053 27.3719 31.8976 28.1021 40.1178Z" fill="#3A4380"/>
<path d="M28.1021 40.1178C28.1327 40.4627 10.999 42.1736 2.95827 42.3514C2.26218 39.8502 1.47656 33.0073 0.809253 25.4952C0.141941 17.9832 0.138332 16.0776 0.138332 16.0776C-1.40579 -8.64053 27.3719 31.8976 28.1021 40.1178Z" stroke="#EEF0FF" stroke-width="0.5"/>
<path d="M28.1021 40.1178C28.1327 40.4627 10.999 42.1736 2.95827 42.3514C2.26218 39.8502 1.47656 33.0073 0.809253 25.4952C0.141941 17.9832 0.138332 16.0776 0.138332 16.0776C-1.40579 -8.64053 27.3719 31.8976 28.1021 40.1178Z" stroke="#EEF0FF" stroke-width="0.5"/>
<path d="M45.4521 38.8466C42.1792 39.1373 28.815 40.3245 23.6526 40.7831C18.4902 41.2417 21.7085 24.0849 21.7085 24.0849C23.3347 -8.63691 50.7312 38.3776 45.4521 38.8466Z" fill="#F26BF9"/>
<path d="M45.4521 38.8466C42.1792 39.1373 28.815 40.3245 23.6526 40.7831C18.4902 41.2417 21.7085 24.0849 21.7085 24.0849C23.3347 -8.63691 50.7312 38.3776 45.4521 38.8466Z" fill="#F26BF9"/>
<path d="M45.4521 38.8466C42.1792 39.1373 28.815 40.3245 23.6526 40.7831C18.4902 41.2417 21.7085 24.0849 21.7085 24.0849C23.3347 -8.63691 50.7312 38.3776 45.4521 38.8466Z" stroke="#EEF0FF" stroke-width="0.5"/>
<path d="M45.4521 38.8466C42.1792 39.1373 28.815 40.3245 23.6526 40.7831C18.4902 41.2417 21.7085 24.0849 21.7085 24.0849C23.3347 -8.63691 50.7312 38.3776 45.4521 38.8466Z" stroke="#EEF0FF" stroke-width="0.5"/>
<path d="M11.5382 17.9856C12.282 19.9209 13.0791 24.0986 11.654 24.6512C10.2289 25.2038 7.50837 21.7718 6.7646 19.8366C6.02083 17.9013 8.48315 20.6614 9.90824 20.1089C11.3333 19.5563 10.7945 16.0503 11.5382 17.9856Z" fill="#FBE4FC"/>
<path d="M11.1119 20.3472C11.5006 21.3584 11.9234 23.539 11.1916 23.8228C10.4598 24.1066 9.04925 22.3089 8.6606 21.2977C8.27195 20.2864 9.5476 21.733 10.2794 21.4492C11.0112 21.1655 10.7233 19.3359 11.1119 20.3472Z" fill="#F26BF9"/>
<path d="M29.9754 24.0408C29.8251 26.1092 28.7694 30.2267 27.2456 30.1133C25.7218 29.9998 24.7207 25.7292 24.871 23.6608C25.0213 21.5924 26.0745 25.145 27.5983 25.2584C29.1221 25.3719 30.1256 21.9724 29.9754 24.0408Z" fill="#FBE4FC"/>
<path d="M28.5854 25.9916C28.5068 27.0724 27.962 29.2245 27.1795 29.1662C26.397 29.108 25.8857 26.8773 25.9642 25.7964C26.0427 24.7156 26.5813 26.5711 27.3638 26.6294C28.1463 26.6876 28.6639 24.9108 28.5854 25.9916Z" fill="#3A4380"/>
</g>
</svg>
