<svg width="47" height="62" viewBox="0 0 47 62" fill="none" xmlns="http://www.w3.org/2000/svg">
<mask id="mask0_387_548" style="mask-type:alpha" maskUnits="userSpaceOnUse" x="0" y="0" width="47" height="47">
<circle cx="23.5" cy="23.5" r="23.5" fill="#EEF0FF"/>
</mask>
<g mask="url(#mask0_387_548)">
<ellipse cx="23.5001" cy="24.073" rx="26.939" ry="25.2195" fill="#EEF0FF"/>
<path d="M32.2143 45.9886C32.2494 46.3839 12.6083 48.3452 3.39091 48.549C2.59294 45.6818 1.69236 37.8375 0.927394 29.2261C0.162427 20.6147 0.15829 18.4303 0.15829 18.4303C-1.6118 -9.90518 31.3772 36.5654 32.2143 45.9886Z" fill="#3A4380"/>
<path d="M32.2143 45.9886C32.2494 46.3839 12.6083 48.3452 3.39091 48.549C2.59294 45.6818 1.69236 37.8375 0.927394 29.2261C0.162427 20.6147 0.15829 18.4303 0.15829 18.4303C-1.6118 -9.90518 31.3772 36.5654 32.2143 45.9886Z" fill="#3A4380"/>
<path d="M32.2143 45.9886C32.2494 46.3839 12.6083 48.3452 3.39091 48.549C2.59294 45.6818 1.69236 37.8375 0.927394 29.2261C0.162427 20.6147 0.15829 18.4303 0.15829 18.4303C-1.6118 -9.90518 31.3772 36.5654 32.2143 45.9886Z" stroke="#EEF0FF" stroke-width="0.5"/>
<path d="M32.2143 45.9886C32.2494 46.3839 12.6083 48.3452 3.39091 48.549C2.59294 45.6818 1.69236 37.8375 0.927394 29.2261C0.162427 20.6147 0.15829 18.4303 0.15829 18.4303C-1.6118 -9.90518 31.3772 36.5654 32.2143 45.9886Z" stroke="#EEF0FF" stroke-width="0.5"/>
<path d="M52.1036 44.5317C48.3516 44.865 33.0318 46.2259 27.1139 46.7516C21.196 47.2773 24.8853 27.6098 24.8853 27.6098C26.7495 -9.90062 58.1552 43.9941 52.1036 44.5317Z" fill="#F26BF9"/>
<path d="M52.1036 44.5317C48.3516 44.865 33.0318 46.2259 27.1139 46.7516C21.196 47.2773 24.8853 27.6098 24.8853 27.6098C26.7495 -9.90062 58.1552 43.9941 52.1036 44.5317Z" fill="#F26BF9"/>
<path d="M52.1036 44.5317C48.3516 44.865 33.0318 46.2259 27.1139 46.7516C21.196 47.2773 24.8853 27.6098 24.8853 27.6098C26.7495 -9.90062 58.1552 43.9941 52.1036 44.5317Z" stroke="#EEF0FF" stroke-width="0.5"/>
<path d="M52.1036 44.5317C48.3516 44.865 33.0318 46.2259 27.1139 46.7516C21.196 47.2773 24.8853 27.6098 24.8853 27.6098C26.7495 -9.90062 58.1552 43.9941 52.1036 44.5317Z" stroke="#EEF0FF" stroke-width="0.5"/>
<path d="M13.2266 20.6176C14.0792 22.8361 14.9929 27.6252 13.3593 28.2586C11.7257 28.8921 8.60701 24.9579 7.7544 22.7394C6.90179 20.5209 9.72444 23.685 11.3581 23.0515C12.9917 22.4181 12.374 18.3991 13.2266 20.6176Z" fill="#FBE4FC"/>
<path d="M12.7383 23.3249C13.1838 24.4841 13.6686 26.9838 12.8297 27.3091C11.9908 27.6344 10.3738 25.5737 9.92825 24.4145C9.48273 23.2552 10.9451 24.9135 11.784 24.5882C12.6228 24.2629 12.2928 22.1656 12.7383 23.3249Z" fill="#F26BF9"/>
<path d="M34.3618 27.5591C34.1895 29.9302 32.9793 34.6503 31.2325 34.5202C29.4857 34.3901 28.3382 29.4945 28.5105 27.1234C28.6828 24.7523 29.8901 28.8248 31.6369 28.9549C33.3837 29.085 34.5341 25.188 34.3618 27.5591Z" fill="#FBE4FC"/>
<path d="M32.7685 29.795C32.6785 31.034 32.0539 33.501 31.1569 33.4342C30.2599 33.3674 29.6737 30.8103 29.7638 29.5713C29.8538 28.3323 30.4712 30.4593 31.3682 30.5261C32.2652 30.5929 32.8585 28.556 32.7685 29.795Z" fill="#3A4380"/>
</g>
<path d="M19.25 51.375L23.5 55.625L27.75 51.375" stroke="#F26BF9" stroke-width="4" stroke-linecap="round" stroke-linejoin="round"/>
</svg>
