<svg width="22" height="24" viewBox="0 0 22 24" fill="none" xmlns="http://www.w3.org/2000/svg">
<rect x="0.5" y="0.5" width="21" height="23" rx="7.5" stroke="#3A4380"/>
<rect x="4.25781" y="10.2856" width="13.4839" height="1.37143" rx="0.685714" fill="#3A4380"/>
<rect x="4.25781" y="13.7148" width="13.4839" height="1.37143" rx="0.685714" fill="#3A4380"/>
<rect x="4.25781" y="6.85742" width="10.6452" height="1.37143" rx="0.685714" fill="#3A4380"/>
<g clip-path="url(#clip0_193_972)">
<path d="M17.3873 18.3559V18.5136C17.387 18.8833 17.2632 19.243 17.0341 19.5391C16.805 19.8351 16.483 20.0517 16.1161 20.1566C15.7492 20.2614 15.3571 20.2488 14.9982 20.1207C14.6393 19.9926 14.3329 19.7558 14.1247 19.4457C13.9164 19.1356 13.8175 18.7687 13.8427 18.3998C13.8679 18.031 14.0158 17.6798 14.2644 17.3988C14.5129 17.1178 14.8489 16.922 15.2221 16.8405C15.5952 16.759 15.9857 16.7963 16.3352 16.9467M17.3873 17.1422L15.6131 18.8582L15.0808 18.3439" stroke="#3A4380" stroke-linecap="round" stroke-linejoin="round"/>
</g>
<defs>
<clipPath id="clip0_193_972">
<rect width="4.25806" height="4.11429" fill="white" transform="translate(13.4839 16.4565)"/>
</clipPath>
</defs>
</svg>
